<?xml version="1.0" encoding="UTF-8"?>
<svg version="1.1" xmlns="http://www.w3.org/2000/svg" width="83" height="20">
<path d="M0 0 C2.64 0 5.28 0 8 0 C7.67 0.99 7.34 1.98 7 3 C6.01 3.33 5.02 3.66 4 4 C4.66 4.37125 5.32 4.7425 6 5.125 C8 7 8 7 8.375 10.0625 C8 13 8 13 6 15 C3.375 15.125 3.375 15.125 1 15 C0.34 13.35 -0.32 11.7 -1 10 C0.32 10 1.64 10 3 10 C3.33 10.66 3.66 11.32 4 12 C4.33 10.35 4.66 8.7 5 7 C3.35 7.33 1.7 7.66 0 8 C0 5.36 0 2.72 0 0 Z " fill="#000000" transform="translate(7,1)"/>
<path d="M0 0 C5.71428571 0.71428571 5.71428571 0.71428571 7 2 C7.3125 4.3125 7.3125 4.3125 7 7 C5 9.3125 5 9.3125 3 11 C3.66 11.33 4.32 11.66 5 12 C5 11.34 5 10.68 5 10 C5.66 10 6.32 10 7 10 C7 11.32 7 12.64 7 14 C4.03 14 1.06 14 -2 14 C0 10 0 10 1.625 8 C3.37768588 5.85514888 3.37768588 5.85514888 3 2 C2.34 2 1.68 2 1 2 C1 3.32 1 4.64 1 6 C0.01 6 -0.98 6 -2 6 C-1.125 1.125 -1.125 1.125 0 0 Z " fill="#000000" transform="translate(39,1)"/>
<path d="M0 0 C0 4.29 0 8.58 0 13 C0.66 13.33 1.32 13.66 2 14 C-0.64 14 -3.28 14 -6 14 C-5.01 13.67 -4.02 13.34 -3 13 C-3 9.7 -3 6.4 -3 3 C-3.99 3 -4.98 3 -6 3 C-6 2.34 -6 1.68 -6 1 C-3.92446352 0.4465236 -2.15634036 0 0 0 Z " fill="#000000" transform="translate(74,1)"/>
<path d="M0 0 C1.32 0 2.64 0 4 0 C4 6.6 4 13.2 4 20 C2.68 19.67 1.36 19.34 0 19 C0.66 19 1.32 19 2 19 C2 13.06 2 7.12 2 1 C1.34 0.67 0.68 0.34 0 0 Z " fill="#000000" transform="translate(77,0)"/>
<path d="M0 0 C1.32 0.33 2.64 0.66 4 1 C3.34 1 2.68 1 2 1 C2 6.94 2 12.88 2 19 C2.66 19.33 3.32 19.66 4 20 C2.68 20 1.36 20 0 20 C0 13.4 0 6.8 0 0 Z " fill="#000000" transform="translate(2,0)"/>
</svg>
