<?xml version="1.0" encoding="UTF-8"?>
<svg version="1.1" xmlns="http://www.w3.org/2000/svg" width="53" height="78">
<path d="M0 0 C2.64 0 5.28 0 8 0 C8 25.74 8 51.48 8 78 C5.36 78 2.72 78 0 78 C0 77.34 0 76.68 0 76 C1.65 76 3.3 76 5 76 C5 51.58 5 27.16 5 2 C3.35 2 1.7 2 0 2 C0 1.34 0 0.68 0 0 Z " fill="#000000" transform="translate(39,0)"/>
<path d="M0 0 C2.64 0 5.28 0 8 0 C8 0.66 8 1.32 8 2 C6.35 2 4.7 2 3 2 C3 26.42 3 50.84 3 76 C4.65 76 6.3 76 8 76 C8 76.66 8 77.32 8 78 C5.36 78 2.72 78 0 78 C0 52.26 0 26.52 0 0 Z " fill="#000000" transform="translate(6,0)"/>
<path d="M0 0 C2.5 -0.3125 2.5 -0.3125 5 0 C7 2 7 2 7.265625 4.53125 C7.26046875 5.5109375 7.2553125 6.490625 7.25 7.5 C7.25515625 8.4796875 7.2603125 9.459375 7.265625 10.46875 C7 13 7 13 5 15 C1.9375 14.75 1.9375 14.75 -1 14 C-2.16983345 11.6603331 -2.1661241 10.16608473 -2.1875 7.5625 C-2.20167969 6.78003906 -2.21585938 5.99757813 -2.23046875 5.19140625 C-2 3 -2 3 0 0 Z M1 2 C1 5.3 1 8.6 1 12 C1.99 12 2.98 12 4 12 C4 8.7 4 5.4 4 2 C3.01 2 2.02 2 1 2 Z " fill="#000000" transform="translate(16,59)"/>
<path d="M0 0 C2.5625 0.1875 2.5625 0.1875 4.5625 2.1875 C4.9375 4.5625 4.9375 4.5625 4.5625 7.1875 C2.5625 9.5 2.5625 9.5 0.5625 11.1875 C1.2225 11.5175 1.8825 11.8475 2.5625 12.1875 C2.5625 11.5275 2.5625 10.8675 2.5625 10.1875 C3.2225 10.1875 3.8825 10.1875 4.5625 10.1875 C4.2325 11.8375 3.9025 13.4875 3.5625 15.1875 C0.9225 15.1875 -1.7175 15.1875 -4.4375 15.1875 C-4.00207918 12.24840946 -3.31262298 11.03613392 -1.375 8.6875 C0.97088111 6.18770584 0.97088111 6.18770584 0.5625 2.1875 C-0.0975 2.1875 -0.7575 2.1875 -1.4375 2.1875 C-1.4375 3.5075 -1.4375 4.8275 -1.4375 6.1875 C-2.4275 6.1875 -3.4175 6.1875 -4.4375 6.1875 C-3.3735 0.2595 -3.3735 0.2595 0 0 Z " fill="#000000" transform="translate(34.4375,29.8125)"/>
<path d="M0 0 C5.71428571 0.71428571 5.71428571 0.71428571 7 2 C6.75 5.4375 6.75 5.4375 6 9 C5.01 9.66 4.02 10.32 3 11 C3.66 11.33 4.32 11.66 5 12 C5 11.34 5 10.68 5 10 C5.66 10 6.32 10 7 10 C7 11.65 7 13.3 7 15 C4.03 15 1.06 15 -2 15 C-1.03265478 12.32119785 -0.14649125 10.1859312 1.625 7.9375 C3.38583134 5.85229894 3.38583134 5.85229894 3 2 C2.34 2 1.68 2 1 2 C1 3.32 1 4.64 1 6 C0.01 6 -0.98 6 -2 6 C-1.125 1.125 -1.125 1.125 0 0 Z " fill="#000000" transform="translate(24,1)"/>
<path d="M0 0 C0 3.96 0 7.92 0 12 C0.66 12 1.32 12 2 12 C2 12.66 2 13.32 2 14 C-0.31 14 -2.62 14 -5 14 C-5 13.34 -5 12.68 -5 12 C-4.34 12 -3.68 12 -3 12 C-3 9.03 -3 6.06 -3 3 C-3.66 3 -4.32 3 -5 3 C-5 2.34 -5 1.68 -5 1 C-3 0 -3 0 0 0 Z " fill="#000000" transform="translate(36,59)"/>
<path d="M0 0 C4.29 0 8.58 0 13 0 C13 0.66 13 1.32 13 2 C8.71 2 4.42 2 0 2 C0 1.34 0 0.68 0 0 Z " fill="#000000" transform="translate(15,38)"/>
<path d="M0 0 C0.99 0 1.98 0 3 0 C3 0.99 3 1.98 3 3 C2.01 3 1.02 3 0 3 C0 2.01 0 1.02 0 0 Z " fill="#000000" transform="translate(25,70)"/>
</svg>
