<?xml version="1.0" encoding="UTF-8"?>
<svg version="1.1" xmlns="http://www.w3.org/2000/svg" width="453" height="78">
<path d="M0 0 C2.64 0 5.28 0 8 0 C8 25.74 8 51.48 8 78 C5.36 78 2.72 78 0 78 C0 77.34 0 76.68 0 76 C1.98 76 3.96 76 6 76 C6 51.58 6 27.16 6 2 C4.02 2 2.04 2 0 2 C0 1.34 0 0.68 0 0 Z " fill="#000000" transform="translate(142,0)"/>
<path d="M0 0 C2.64 0 5.28 0 8 0 C8 0.66 8 1.32 8 2 C6.02 2 4.04 2 2 2 C2 26.42 2 50.84 2 76 C3.98 76 5.96 76 8 76 C8 76.66 8 77.32 8 78 C5.36 78 2.72 78 0 78 C0 52.26 0 26.52 0 0 Z " fill="#000000" transform="translate(110,0)"/>
<path d="M0 0 C0.763125 0.0825 1.52625 0.165 2.3125 0.25 C2.6425 1.57 2.9725 2.89 3.3125 4.25 C2.673125 4.064375 2.03375 3.87875 1.375 3.6875 C0.3540625 3.4709375 0.3540625 3.4709375 -0.6875 3.25 C-1.0175 3.58 -1.3475 3.91 -1.6875 4.25 C-1.048125 4.37375 -0.40875 4.4975 0.25 4.625 C0.930625 4.83125 1.61125 5.0375 2.3125 5.25 C3.69375018 8.01250036 3.50329306 10.19731099 3.3125 13.25 C1.3125 15.25 1.3125 15.25 -1.1875 15.5625 C-2.425 15.4078125 -2.425 15.4078125 -3.6875 15.25 C-6.15553687 11.54794469 -6.24038088 8.54346556 -5.6875 4.25 C-4.15169519 1.01672672 -3.59306259 0.33423838 0 0 Z M-1.6875 7.25 C-2.0175 8.9 -2.3475 10.55 -2.6875 12.25 C-1.6975 12.58 -0.7075 12.91 0.3125 13.25 C0.3125 11.27 0.3125 9.29 0.3125 7.25 C-0.3475 7.25 -1.0075 7.25 -1.6875 7.25 Z " fill="#000000" transform="translate(430.6875,29.75)"/>
<path d="M0 0 C2.375 -0.125 2.375 -0.125 5 0 C5.66 0.66 6.32 1.32 7 2 C6.71269945 4.33944736 6.38063221 6.6739143 6 9 C6.33 9.33 6.66 9.66 7 10 C7.04063832 11.66617115 7.042721 13.33388095 7 15 C4.03 15 1.06 15 -2 15 C-0.36053412 10.33382789 -0.36053412 10.33382789 1.6875 8.4375 C2.3371875 7.7259375 2.3371875 7.7259375 3 7 C2.77242269 4.83700789 2.77242269 4.83700789 2 3 C1.67 3.99 1.34 4.98 1 6 C0.01 5.67 -0.98 5.34 -2 5 C-1.34 3.35 -0.68 1.7 0 0 Z M3 10 C2.67 10.66 2.34 11.32 2 12 C2.99 12 3.98 12 5 12 C5 11.34 5 10.68 5 10 C4.34 10 3.68 10 3 10 Z " fill="#000000" transform="translate(135,30)"/>
<path d="M0 0 C2.33944736 0.28730055 4.6739143 0.61936779 7 1 C7.75 3.1875 7.75 3.1875 8 6 C6.0625 8.8125 6.0625 8.8125 4 11 C5.32 10.67 6.64 10.34 8 10 C7.67 11.65 7.34 13.3 7 15 C4.36 15 1.72 15 -1 15 C-0.53909825 12.41895019 -0.05327196 11.06556549 1.625 9 C3.2701354 7.08868223 3.2701354 7.08868223 2.6875 4.75 C2.460625 4.1725 2.23375 3.595 2 3 C1.67 3.99 1.34 4.98 1 6 C0.34 6 -0.32 6 -1 6 C-1.042721 4.33388095 -1.04063832 2.66617115 -1 1 C-0.67 0.67 -0.34 0.34 0 0 Z " fill="#000000" transform="translate(302,30)"/>
<path d="M0 0 C1.2684375 0.12375 1.2684375 0.12375 2.5625 0.25 C4.5625 3.25 4.5625 3.25 4.375 5.75 C3.51809826 8.38662075 2.67257147 9.50689748 0.5625 11.25 C1.2225 11.58 1.8825 11.91 2.5625 12.25 C2.5625 11.59 2.5625 10.93 2.5625 10.25 C3.2225 10.25 3.8825 10.25 4.5625 10.25 C4.2325 11.9 3.9025 13.55 3.5625 15.25 C0.9225 15.25 -1.7175 15.25 -4.4375 15.25 C-3.9776059 12.26068833 -3.11008828 10.76384321 -1.375 8.1875 C0.83779737 5.41910067 0.83779737 5.41910067 0.5625 2.25 C-0.0975 2.25 -0.7575 2.25 -1.4375 2.25 C-1.4375 3.57 -1.4375 4.89 -1.4375 6.25 C-2.4275 6.25 -3.4175 6.25 -4.4375 6.25 C-3.37788848 0.3464501 -3.37788848 0.3464501 0 0 Z " fill="#000000" transform="translate(252.4375,29.75)"/>
<path d="M0 0 C2.5625 0.1875 2.5625 0.1875 4.5625 2.1875 C4.9375 4.5625 4.9375 4.5625 4.5625 7.1875 C2.5625 9.5 2.5625 9.5 0.5625 11.1875 C1.2225 11.5175 1.8825 11.8475 2.5625 12.1875 C2.5625 11.5275 2.5625 10.8675 2.5625 10.1875 C3.2225 10.1875 3.8825 10.1875 4.5625 10.1875 C4.2325 11.8375 3.9025 13.4875 3.5625 15.1875 C0.9225 15.1875 -1.7175 15.1875 -4.4375 15.1875 C-4.00110594 12.2418401 -3.28904873 11.00306054 -1.375 8.625 C0.87362206 6.31504332 0.87362206 6.31504332 0.5625 3.1875 C-0.0975 2.8575 -0.7575 2.5275 -1.4375 2.1875 C-1.4375 3.5075 -1.4375 4.8275 -1.4375 6.1875 C-2.4275 6.1875 -3.4175 6.1875 -4.4375 6.1875 C-3.3735 0.2595 -3.3735 0.2595 0 0 Z " fill="#000000" transform="translate(217.4375,29.8125)"/>
<path d="M0 0 C2.5625 0.1875 2.5625 0.1875 4.5625 2.1875 C4.9375 4.5625 4.9375 4.5625 4.5625 7.1875 C2.5625 9.5 2.5625 9.5 0.5625 11.1875 C1.2225 11.5175 1.8825 11.8475 2.5625 12.1875 C2.5625 11.5275 2.5625 10.8675 2.5625 10.1875 C3.2225 10.1875 3.8825 10.1875 4.5625 10.1875 C4.2325 11.8375 3.9025 13.4875 3.5625 15.1875 C0.9225 15.1875 -1.7175 15.1875 -4.4375 15.1875 C-4.00110594 12.2418401 -3.28904873 11.00306054 -1.375 8.625 C0.87362206 6.31504332 0.87362206 6.31504332 0.5625 3.1875 C-0.0975 2.8575 -0.7575 2.5275 -1.4375 2.1875 C-1.4375 3.5075 -1.4375 4.8275 -1.4375 6.1875 C-2.4275 6.1875 -3.4175 6.1875 -4.4375 6.1875 C-3.3735 0.2595 -3.3735 0.2595 0 0 Z " fill="#000000" transform="translate(43.4375,29.8125)"/>
<path d="M0 0 C1.73636984 1.97314755 2.01250055 3.3687222 1.9609375 5.97265625 C1.41046278 11.58953722 1.41046278 11.58953722 -1 14 C-3.625 14.125 -3.625 14.125 -6 14 C-8.33214424 10.35602463 -8.23164058 7.24674388 -8 3 C-7.67 2.01 -7.34 1.02 -7 0 C-4.25509788 -1.37245106 -2.87939419 -0.93580311 0 0 Z M-4 1 C-5.23267348 2.00836062 -5.23267348 2.00836062 -5.09765625 4.06640625 C-5.08605469 4.89011719 -5.07445312 5.71382812 -5.0625 6.5625 C-5.05347656 7.38878906 -5.04445313 8.21507812 -5.03515625 9.06640625 C-5.02355469 9.70449219 -5.01195312 10.34257813 -5 11 C-4.01 11.33 -3.02 11.66 -2 12 C-0.50702788 9.01405576 -0.88244772 6.29146376 -1 3 C-1.33 2.34 -1.66 1.68 -2 1 C-2.66 1 -3.32 1 -4 1 Z " fill="#000000" transform="translate(380,31)"/>
<path d="M0 0 C1 1 1 1 1.1875 3.875 C1 7 1 7 -1 10 C-0.34 9.67 0.32 9.34 1 9 C1 10.65 1 12.3 1 14 C-1.97 14 -4.94 14 -8 14 C-6 10 -6 10 -4.375 8 C-2.62231412 5.85514888 -2.62231412 5.85514888 -3 2 C-3.33 2.99 -3.66 3.98 -4 5 C-5.32 4.67 -6.64 4.34 -8 4 C-7.625 2.0625 -7.625 2.0625 -7 0 C-4.31633121 -1.3418344 -2.84719317 -0.73004953 0 0 Z " fill="#000000" transform="translate(133,2)"/>
<path d="M0 0 C1.4540625 0.0309375 1.4540625 0.0309375 2.9375 0.0625 C5.27229983 3.71062473 5.31768947 6.80437788 4.9375 11.0625 C3.4375 13.5 3.4375 13.5 1.9375 15.0625 C-0.4375 14.875 -0.4375 14.875 -3.0625 14.0625 C-5.90347463 9.80103805 -4.93905358 5.84370135 -4.0625 1.0625 C-3.0625 0.0625 -3.0625 0.0625 0 0 Z M-1.0625 2.0625 C-2.96135096 3.96135096 -2.18617506 6.63497903 -2.1953125 9.15234375 C-2.17936861 11.14884367 -2.17936861 11.14884367 -1.0625 13.0625 C-0.0725 12.7325 0.9175 12.4025 1.9375 12.0625 C1.9375 9.0925 1.9375 6.1225 1.9375 3.0625 C0.9475 2.7325 -0.0425 2.4025 -1.0625 2.0625 Z " fill="#000000" transform="translate(122.0625,58.9375)"/>
<path d="M0 0 C2.31 0 4.62 0 7 0 C6.67 0.99 6.34 1.98 6 3 C5.01 3.33 4.02 3.66 3 4 C3.639375 4.20625 4.27875 4.4125 4.9375 4.625 C7 6 7 6 7.9375 8.9375 C8 12 8 12 6.875 13.9375 C5 15 5 15 2.3125 14.6875 C1.549375 14.460625 0.78625 14.23375 0 14 C-0.33 12.35 -0.66 10.7 -1 9 C-0.01 9 0.98 9 2 9 C2 10.32 2 11.64 2 13 C2.66 12.67 3.32 12.34 4 12 C4 10.68 4 9.36 4 8 C2.68 8 1.36 8 0 8 C0 5.36 0 2.72 0 0 Z " fill="#000000" transform="translate(185,30)"/>
<path d="M0 0 C2.31 0 4.62 0 7 0 C6.67 0.99 6.34 1.98 6 3 C5.01 3.33 4.02 3.66 3 4 C3.639375 4.20625 4.27875 4.4125 4.9375 4.625 C7 6 7 6 7.9375 8.9375 C8 12 8 12 6.9375 13.9375 C4.08906752 15.49954362 2.06495097 14.74921024 -1 14 C-1 12.35 -1 10.7 -1 9 C-0.01 9.33 0.98 9.66 2 10 C2 10.99 2 11.98 2 13 C2.66 13 3.32 13 4 13 C4 11.35 4 9.7 4 8 C2.68 8 1.36 8 0 8 C0 5.36 0 2.72 0 0 Z " fill="#000000" transform="translate(10,30)"/>
<path d="M0 0 C0 4.29 0 8.58 0 13 C0.66 13 1.32 13 2 13 C2 13.66 2 14.32 2 15 C-0.31 15 -2.62 15 -5 15 C-5 14.34 -5 13.68 -5 13 C-4.34 13 -3.68 13 -3 13 C-3 9.7 -3 6.4 -3 3 C-3.99 3 -4.98 3 -6 3 C-6 2.34 -6 1.68 -6 1 C-3.92446352 0.4465236 -2.15634036 0 0 0 Z " fill="#000000" transform="translate(447,30)"/>
<path d="M0 0 C0 4.29 0 8.58 0 13 C0.99 13 1.98 13 3 13 C3 13.66 3 14.32 3 15 C0.36 15 -2.28 15 -5 15 C-5 14.34 -5 13.68 -5 13 C-4.34 13 -3.68 13 -3 13 C-3 9.7 -3 6.4 -3 3 C-3.66 3 -4.32 3 -5 3 C-5 2.34 -5 1.68 -5 1 C-2 0 -2 0 0 0 Z " fill="#000000" transform="translate(394,30)"/>
<path d="M0 0 C0 4.29 0 8.58 0 13 C0.99 13 1.98 13 3 13 C3 13.66 3 14.32 3 15 C0.36 15 -2.28 15 -5 15 C-5 14.34 -5 13.68 -5 13 C-4.34 13 -3.68 13 -3 13 C-3 9.7 -3 6.4 -3 3 C-3.66 3 -4.32 3 -5 3 C-5 2.34 -5 1.68 -5 1 C-2 0 -2 0 0 0 Z " fill="#000000" transform="translate(349,30)"/>
<path d="M0 0 C0.66 0 1.32 0 2 0 C1.77183594 0.556875 1.54367187 1.11375 1.30859375 1.6875 C-1.25269667 8.48697951 -1.40233829 13.04045659 1.0625 20 C1.371875 20.66 1.68125 21.32 2 22 C-0.37583732 21.04966507 -1.73142194 20.42689775 -3.11328125 18.23046875 C-4.6923232 14.2585174 -4.46232614 10.20172872 -4 6 C-2.83567931 3.51949071 -1.90574048 1.90574048 0 0 Z " fill="#000000" transform="translate(282,28)"/>
<path d="M0 0 C3 1 3 1 4.01953125 2.75 C6.10716326 8.67352727 6.2449052 13.08485298 4 19 C3.34 19.99 2.68 20.98 2 22 C1.34 22 0.68 22 0 22 C0.495 20.515 0.495 20.515 1 19 C2.89900175 12.27210808 2.18442698 6.55328093 0 0 Z " fill="#000000" transform="translate(311,28)"/>
<path d="M0 0 C0.66 0 1.32 0 2 0 C2.33 0.66 2.66 1.32 3 2 C3.99 2.33 4.98 2.66 6 3 C5.67 4.65 5.34 6.3 5 8 C4.34 8 3.68 8 3 8 C2.67 8.66 2.34 9.32 2 10 C1.34 10 0.68 10 0 10 C0 9.34 0 8.68 0 8 C-0.99 8 -1.98 8 -3 8 C-3 6.02 -3 4.04 -3 2 C-2.01 2 -1.02 2 0 2 C0 1.34 0 0.68 0 0 Z " fill="#000000" transform="translate(361,34)"/>
<path d="M0 0 C0.66 0 1.32 0 2 0 C2 1.98 2 3.96 2 6 C4.31 6 6.62 6 9 6 C9 6.66 9 7.32 9 8 C6.69 8 4.38 8 2 8 C2 9.98 2 11.96 2 14 C1.34 14 0.68 14 0 14 C0 12.02 0 10.04 0 8 C-1.98 8 -3.96 8 -6 8 C-6 7.34 -6 6.68 -6 6 C-4.02 6 -2.04 6 0 6 C0 4.02 0 2.04 0 0 Z " fill="#000000" transform="translate(329,32)"/>
<path d="M0 0 C0.66 0 1.32 0 2 0 C2 1.98 2 3.96 2 6 C3.98 6 5.96 6 8 6 C8 6.66 8 7.32 8 8 C6.02 8 4.04 8 2 8 C2 9.98 2 11.96 2 14 C1.34 14 0.68 14 0 14 C0 12.02 0 10.04 0 8 C-1.98 8 -3.96 8 -6 8 C-6 7.34 -6 6.68 -6 6 C-4.02 6 -2.04 6 0 6 C0 4.02 0 2.04 0 0 Z " fill="#000000" transform="translate(234,32)"/>
<path d="M0 0 C1.32 0 2.64 0 4 0 C4 7.26 4 14.52 4 22 C2.68 22 1.36 22 0 22 C0 21.34 0 20.68 0 20 C0.66 20 1.32 20 2 20 C2 14.06 2 8.12 2 2 C1.34 2 0.68 2 0 2 C0 1.34 0 0.68 0 0 Z " fill="#000000" transform="translate(79,28)"/>
<path d="M0 0 C1.32 0 2.64 0 4 0 C4 0.66 4 1.32 4 2 C3.34 2 2.68 2 2 2 C2 7.94 2 13.88 2 20 C2.66 20 3.32 20 4 20 C4 20.66 4 21.32 4 22 C2.68 22 1.36 22 0 22 C0 14.74 0 7.48 0 0 Z " fill="#000000" transform="translate(4,28)"/>
<path d="M0 0 C0.66 0 1.32 0 2 0 C2.33 0.66 2.66 1.32 3 2 C3.66 2 4.32 2 5 2 C5 3.98 5 5.96 5 8 C4.34 8 3.68 8 3 8 C2.67 8.66 2.34 9.32 2 10 C1.34 10 0.68 10 0 10 C-0.33 9.34 -0.66 8.68 -1 8 C-1.66 8 -2.32 8 -3 8 C-3 6.02 -3 4.04 -3 2 C-2.34 2 -1.68 2 -1 2 C-0.67 1.34 -0.34 0.68 0 0 Z " fill="#000000" transform="translate(266,34)"/>
<path d="M0 0 C0.66 0 1.32 0 2 0 C2.33 0.66 2.66 1.32 3 2 C3.66 2 4.32 2 5 2 C5 3.98 5 5.96 5 8 C4.34 8 3.68 8 3 8 C2.67 8.66 2.34 9.32 2 10 C1.34 10 0.68 10 0 10 C-0.33 9.34 -0.66 8.68 -1 8 C-1.66 8 -2.32 8 -3 8 C-3 6.02 -3 4.04 -3 2 C-2.34 2 -1.68 2 -1 2 C-0.67 1.34 -0.34 0.68 0 0 Z " fill="#000000" transform="translate(202,34)"/>
<path d="M0 0 C0.66 0 1.32 0 2 0 C2.33 0.66 2.66 1.32 3 2 C3.66 2 4.32 2 5 2 C5 3.98 5 5.96 5 8 C4.34 8 3.68 8 3 8 C2.67 8.66 2.34 9.32 2 10 C1.34 10 0.68 10 0 10 C-0.33 9.34 -0.66 8.68 -1 8 C-1.66 8 -2.32 8 -3 8 C-3 6.02 -3 4.04 -3 2 C-2.34 2 -1.68 2 -1 2 C-0.67 1.34 -0.34 0.68 0 0 Z " fill="#000000" transform="translate(93,34)"/>
<path d="M0 0 C0 4.29 0 8.58 0 13 C0.99 13 1.98 13 3 13 C3 13.66 3 14.32 3 15 C0.36 15 -2.28 15 -5 15 C-5 14.34 -5 13.68 -5 13 C-4.01 13 -3.02 13 -2 13 C-2 9.7 -2 6.4 -2 3 C-2.99 3 -3.98 3 -5 3 C-5 2.34 -5 1.68 -5 1 C-2 0 -2 0 0 0 Z " fill="#000000" transform="translate(75,30)"/>
<path d="M0 0 C0 3.96 0 7.92 0 12 C0.99 12 1.98 12 3 12 C3 12.66 3 13.32 3 14 C0.36 14 -2.28 14 -5 14 C-5 13.34 -5 12.68 -5 12 C-4.01 12 -3.02 12 -2 12 C-2 9.03 -2 6.06 -2 3 C-2.99 3 -3.98 3 -5 3 C-5 2.34 -5 1.68 -5 1 C-2 0 -2 0 0 0 Z " fill="#000000" transform="translate(139,59)"/>
<path d="M0 0 C4.62 0 9.24 0 14 0 C14 0.66 14 1.32 14 2 C9.38 2 4.76 2 0 2 C0 1.34 0 0.68 0 0 Z " fill="#000000" transform="translate(404,40)"/>
<path d="M0 0 C4.62 0 9.24 0 14 0 C14 0.66 14 1.32 14 2 C9.38 2 4.76 2 0 2 C0 1.34 0 0.68 0 0 Z " fill="#000000" transform="translate(163,40)"/>
<path d="M0 0 C4.62 0 9.24 0 14 0 C14 0.66 14 1.32 14 2 C9.38 2 4.76 2 0 2 C0 1.34 0 0.68 0 0 Z " fill="#000000" transform="translate(118,38)"/>
<path d="M0 0 C4.62 0 9.24 0 14 0 C14 0.66 14 1.32 14 2 C9.38 2 4.76 2 0 2 C0 1.34 0 0.68 0 0 Z " fill="#000000" transform="translate(404,36)"/>
<path d="M0 0 C4.62 0 9.24 0 14 0 C14 0.66 14 1.32 14 2 C9.38 2 4.76 2 0 2 C0 1.34 0 0.68 0 0 Z " fill="#000000" transform="translate(163,36)"/>
<path d="M0 0 C4.29 0 8.58 0 13 0 C13 0.66 13 1.32 13 2 C8.71 2 4.42 2 0 2 C0 1.34 0 0.68 0 0 Z " fill="#000000" transform="translate(286,38)"/>
<path d="M0 0 C1.32 0.33 2.64 0.66 4 1 C4 1.66 4 2.32 4 3 C2.68 3 1.36 3 0 3 C0 2.01 0 1.02 0 0 Z " fill="#000000" transform="translate(128,70)"/>
<path d="M0 0 C0.99 0 1.98 0 3 0 C3 1.32 3 2.64 3 4 C2.01 3.67 1.02 3.34 0 3 C0 2.01 0 1.02 0 0 Z " fill="#000000" transform="translate(383,41)"/>
<path d="M0 0 C0.99 0 1.98 0 3 0 C2.67 1.32 2.34 2.64 2 4 C1.34 3.67 0.68 3.34 0 3 C0 2.01 0 1.02 0 0 Z " fill="#000000" transform="translate(436,41)"/>
</svg>
